<svg xmlns="http://www.w3.org/2000/svg" xmlns:xlink="http://www.w3.org/1999/xlink" version="1.0" x="0px" y="0px" viewBox="0 0 144 144" enable-background="new 0 0 144 144" xml:space="preserve"><circle cx="58.5" cy="95" r="2.5"></circle><circle cx="60.9" cy="82.5" r="2.5"></circle><circle cx="62.2" cy="50" r="2.5"></circle><circle cx="76.5" cy="50" r="2.5"></circle><circle cx="60.9" cy="107.3" r="2.5"></circle><path d="M59.8,58.2c0,0-0.9,0.8-0.4,1.7c0.5,1,1.7,0.5,1.7,0.5l9.9-3.6c1.1-0.6,1.3-2.1,0.6-3.5l0,0c-0.7-1.3-2.2-2-3.2-1.4  L59.8,58.2z"></path><path d="M104.2,92.1c-0.6-11.2-6.7-21.2-16.4-26.7c3-3.7,4.6-8.2,4.6-12.9c0-11.4-9.3-20.6-20.6-20.6c-11.4,0-20.6,9.3-20.6,20.6  c0,4.7,1.6,9.3,4.6,12.9c-6.1,3.4-10.8,8.6-13.6,14.8l-7.7,12.4c-1.2,1.9-1.6,4.3-1.1,6.5c0.5,2.3,1.8,4.2,3.8,5.4  c1.3,0.9,2.9,1.3,4.5,1.3c1.9,4.6,4.8,8.8,8.7,12.2c-0.7,0.9-1.1,2-1.1,3.2c0,2.8,2.3,5,5,5h34.1c2.8,0,5-2.3,5-5  c0-0.9-0.2-1.7-0.7-2.5c4.9-4.1,8.5-9.4,10.3-15.3c0.9-1.4,1.5-3,1.5-4.8v-6.2C104.3,92.3,104.3,92.2,104.2,92.1z M38.6,102  c-1.3-0.8-2.1-2.1-2.5-3.5c-0.3-1.5-0.1-3,0.8-4.3l2.4-3.9c-0.1,1.1-0.2,2.3-0.2,3.5c0,3.1,0.4,6.1,1.3,9  C39.8,102.6,39.2,102.3,38.6,102z M101.3,94.8v3.8c0,3.1-2.5,5.6-5.6,5.6s-5.6-2.5-5.6-5.6V87.5c0-0.8-0.7-1.5-1.5-1.5  S87,86.6,87,87.5v11.2c0,4.8,3.9,8.6,8.6,8.6c0.9,0,1.8-0.1,2.6-0.4c-2,4.1-5,7.7-8.8,10.5l-1.5,1.1l1.5,1.2c0.5,0.4,0.7,1,0.7,1.5  c0,1.1-0.9,2-2,2H54c-1.1,0-2-0.9-2-2c0-0.8,0.4-1.5,1.1-1.8l2.1-1l-1.9-1.5c-7.2-5.7-11.3-14.1-11.3-23.2c0-4.3,0.9-8.3,2.5-12.1  l0-0.1c0.1-0.1,0.1-0.2,0.1-0.3c2.8-6,7.6-11,13.8-14.1l1.9-0.9l-1.4-1.5c-3.2-3.3-5-7.7-5-12.3c0-9.7,7.9-17.6,17.6-17.6  c9.7,0,17.6,7.9,17.6,17.6c0,4.6-1.8,9-5,12.3l-1.4,1.5l1.9,0.9c10.2,5,16.5,15.2,16.5,26.6c0,0.3,0,0.6,0,1  C101.3,94.7,101.3,94.8,101.3,94.8z"></path></svg>