<svg xmlns="http://www.w3.org/2000/svg" xmlns:xlink="http://www.w3.org/1999/xlink" version="1.0" x="0px" y="0px" viewBox="0 0 144 144" enable-background="new 0 0 144 144" xml:space="preserve"><circle cx="58.5" cy="95" r="2.5"></circle><circle cx="64.9" cy="84.5" r="2.5"></circle><circle cx="73.2" cy="63" r="2.5"></circle><circle cx="87.5" cy="63" r="2.5"></circle><path d="M70.8,71.2c0,0-0.9,0.8-0.4,1.7s1.7,0.5,1.7,0.5l9.9-3.6c1.1-0.6,1.3-2.1,0.6-3.5l0,0c-0.7-1.3-2.2-2-3.2-1.4L70.8,71.2z"></path><path d="M106.3,91.5l-5.6-7c-1.7-2.2-3.7-4.2-5.8-6.2c3.8-2.6,6.6-6.3,8-10.7c1.6-5.2,1.2-10.7-1.3-15.5c-2.5-4.8-6.7-8.4-11.9-10  c-2-0.6-4.1-1-6.2-1c-8.9,0-16.7,5.7-19.4,14.2c-1.5,4.7-1.2,9.6,0.7,14.1c-11.2,2.4-20.2,10.3-23.9,21.1  c-11.7,1.8-20.2,4.6-22.6,7.8c-1,1.3-0.9,2.5-0.7,3.2c0.9,3.2,6.5,4.5,13.7,6.1c1.7,0.4,3.4,0.8,5,1.2c3.8,0.9,4.8,2.9,6.1,5.3  c1.7,3.2,3.6,6.9,12.7,6.9l0.2,0c6.5,0,13.4-1.9,19.6-3.6c3.9-1.1,7.6-2.1,10.8-2.5c1-0.1,4.9-0.4,9-0.6c7.7-0.5,13.3-0.8,14.9-1.1  c8.3-2.3,22.3-7,22.3-13.6C131.8,91.8,109.1,91.5,106.3,91.5z M43.5,92.3C46.9,81.5,56,73.7,67.3,72l2.1-0.3l-1-1.9  c-2.3-4.2-2.8-9-1.3-13.6c2.3-7.2,8.9-12.1,16.5-12.1c1.8,0,3.5,0.3,5.3,0.8c9.1,2.9,14.2,12.7,11.3,21.8c-1.4,4.3-4.4,7.9-8.4,10.1  l-1.9,1l1.6,1.4c2.7,2.4,4.9,4.7,6.7,6.9l0,0l8.4,10.5l0.1,0.1c2.3,2.3,2.3,6.1,0,8.5c-2.3,2.3-6.1,2.3-8.5,0l-8.6-8.6  c-0.6-0.6-1.5-0.6-2.1,0s-0.6,1.5,0,2.1l6.9,6.9c-1.5-0.1-3.2-0.2-5.2-0.4c-3.7-0.4-8.3-0.8-13.9-0.8c-2.1,0-4.1,0.1-6.2,0.2l-0.3,0  c-4.2,0.3-8.1,0.5-11.7,0.5c-7.5,0-11.8-1.2-13.6-3.6C42.2,99.5,42.1,96.5,43.5,92.3z M108.9,110.8c-1.4,0.3-8.7,0.7-14.5,1.1  c-4.3,0.3-8.1,0.5-9.1,0.6c-3.3,0.4-7.1,1.5-11.1,2.5c-6,1.6-12.8,3.4-19,3.5h-0.2c-7.6,0-9-2.6-10.6-5.6c-1.3-2.5-2.8-5.3-7.6-6.5  c-1.7-0.4-3.4-0.8-5.1-1.2c-5.3-1.2-11.4-2.5-11.9-4.4c-0.1-0.2-0.1-0.6,0.3-1.1c1.8-2.4,9-4.9,19.9-6.7c-1.1,4.4-0.8,7.8,1.1,10.2  c3.2,4.3,10.2,4.9,16,4.9c3.7,0,7.7-0.2,11.9-0.5l0.3,0c2-0.1,4-0.2,6-0.2c5.4,0,9.9,0.4,13.6,0.8c2.6,0.3,4.8,0.5,6.6,0.5  c0.7,0,1.4,0,2.1-0.1c1.4,0.9,3.1,1.4,4.7,1.4c2.3,0,4.6-0.9,6.4-2.6c3.5-3.5,3.5-9.2,0.1-12.7l-0.6-0.7c11.6,0.3,21.1,2.7,21.1,5.5  C129.4,103,121.3,107.4,108.9,110.8z"></path></svg>