<svg xmlns="http://www.w3.org/2000/svg" xmlns:xlink="http://www.w3.org/1999/xlink" version="1.0" x="0px" y="0px" viewBox="0 0 144 144" enable-background="new 0 0 144 144" xml:space="preserve"><g><path d="M48.1,103.7c-9.5,0-11.6-3.8-13.4-7.2c-1.3-2.4-2.4-4.6-6.4-5.5c-1.8-0.4-3.6-0.8-5.3-1.2c-7.5-1.7-13.4-3-14.4-6.4   c-0.2-0.8-0.3-2,0.7-3.4c4.5-6,29.2-10.5,57.5-10.5c9.2,0,14.2,1.3,18.2,2.3c3,0.8,5.5,1.4,9.1,1.4h0c0.8,0,1.6,0,2.4-0.1   c1.6-0.1,3.4-0.2,5.3-0.2c2.7,0,26.8,0.2,26.8,8.4c0,2-1.7,8.8-23.5,14.3c-5.9,1.5-14.7,1.6-20.5,1.7c-2.1,0-3.9,0.1-4.6,0.1   c-3.3,0.4-7.2,1.5-11.3,2.6c-6.4,1.7-13.8,3.7-20.6,3.7L48.1,103.7z M66.9,71.9c-29.8,0-52,4.9-55.4,9.5C11,82,11,82.4,11.1,82.6   c0.6,1.9,6.9,3.4,12.5,4.6c1.8,0.4,3.6,0.8,5.4,1.2c5.1,1.3,6.6,4.2,8,6.8c1.7,3.2,3.1,5.9,11.1,5.9h0.2c6.5,0,13.6-2,19.9-3.7   c4.2-1.1,8.2-2.2,11.6-2.7c0.8-0.1,2.5-0.1,4.9-0.2c5.4-0.1,14.3-0.2,19.9-1.6c10.4-2.6,21.6-7.5,21.6-11.9   c0-3.2-11.1-5.9-24.3-5.9c-1.9,0-3.6,0.1-5.1,0.2c-0.9,0.1-1.8,0.1-2.6,0.1c0,0,0,0,0,0c-3.8,0-6.6-0.7-9.7-1.5   C80.4,73.1,75.7,71.9,66.9,71.9z"></path></g><g><path d="M16.4,82.2c-0.2,0-0.5-0.1-0.7-0.3c-0.4-0.4-0.4-1,0-1.4c2.9-3.1,22.1-5.6,34.7-6.5c0.5,0,1,0.4,1.1,0.9   c0,0.6-0.4,1-0.9,1.1c-17.5,1.1-31.7,4-33.4,5.9C17,82.1,16.7,82.2,16.4,82.2z"></path></g><g><circle cx="53.2" cy="74.7" r="1.1"></circle></g><g><path d="M91.6,92.7c-1,0-1.8,0-2.5,0c-0.6,0-1-0.5-1-1c0-0.6,0.5-1,1-1c4.6,0.2,15.9,0.1,23.2-3.9c0.5-0.3,1.1-0.1,1.4,0.4   c0.3,0.5,0.1,1.1-0.4,1.4C106.7,92.1,97.2,92.7,91.6,92.7z"></path></g></svg>